<svg viewBox="0 0 568 109" fill="none" xmlns="http://www.w3.org/2000/svg">
  <path d="M53.7 33.4C53.7 37.4667 52.7667 41.2 50.9 44.6C49.0333 47.9333 46.1667 50.6333 42.3 52.7C38.4333 54.7667 33.6333 55.8 27.9 55.8H17.3V81H0.2V10.8H27.9C33.5 10.8 38.2333 11.7667 42.1 13.7C45.9667 15.6333 48.8667 18.3 50.8 21.7C52.7333 25.1 53.7 29 53.7 33.4ZM26.6 42.2C29.8667 42.2 32.3 41.4333 33.9 39.9C35.5 38.3667 36.3 36.2 36.3 33.4C36.3 30.6 35.5 28.4333 33.9 26.9C32.3 25.3667 29.8667 24.6 26.6 24.6H17.3V42.2H26.6ZM56.2023 53C56.2023 47.2667 57.269 42.2333 59.4023 37.9C61.6023 33.5667 64.569 30.2333 68.3023 27.9C72.0357 25.5667 76.2023 24.4 80.8023 24.4C84.7357 24.4 88.169 25.2 91.1023 26.8C94.1023 28.4 96.4023 30.5 98.0023 33.1V25.2H115.102V81H98.0023V73.1C96.3357 75.7 94.0023 77.8 91.0023 79.4C88.069 81 84.6357 81.8 80.7023 81.8C76.169 81.8 72.0357 80.6333 68.3023 78.3C64.569 75.9 61.6023 72.5333 59.4023 68.2C57.269 63.8 56.2023 58.7333 56.2023 53ZM98.0023 53.1C98.0023 48.8333 96.8023 45.4667 94.4023 43C92.069 40.5333 89.2023 39.3 85.8023 39.3C82.4023 39.3 79.5023 40.5333 77.1023 43C74.769 45.4 73.6023 48.7333 73.6023 53C73.6023 57.2667 74.769 60.6667 77.1023 63.2C79.5023 65.6667 82.4023 66.9 85.8023 66.9C89.2023 66.9 92.069 65.6667 94.4023 63.2C96.8023 60.7333 98.0023 57.3667 98.0023 53.1ZM145.673 24.4C149.607 24.4 153.04 25.2 155.973 26.8C158.973 28.4 161.273 30.5 162.873 33.1V25.2H179.973V80.9C179.973 86.0333 178.94 90.6667 176.873 94.8C174.873 99 171.773 102.333 167.573 104.8C163.44 107.267 158.273 108.5 152.073 108.5C143.807 108.5 137.107 106.533 131.973 102.6C126.84 98.7333 123.907 93.4667 123.173 86.8H140.073C140.607 88.9333 141.873 90.6 143.873 91.8C145.873 93.0667 148.34 93.7 151.273 93.7C154.807 93.7 157.607 92.6667 159.673 90.6C161.807 88.6 162.873 85.3667 162.873 80.9V73C161.207 75.6 158.907 77.7333 155.973 79.4C153.04 81 149.607 81.8 145.673 81.8C141.073 81.8 136.907 80.6333 133.173 78.3C129.44 75.9 126.473 72.5333 124.273 68.2C122.14 63.8 121.073 58.7333 121.073 53C121.073 47.2667 122.14 42.2333 124.273 37.9C126.473 33.5667 129.44 30.2333 133.173 27.9C136.907 25.5667 141.073 24.4 145.673 24.4ZM162.873 53.1C162.873 48.8333 161.673 45.4667 159.273 43C156.94 40.5333 154.073 39.3 150.673 39.3C147.273 39.3 144.373 40.5333 141.973 43C139.64 45.4 138.473 48.7333 138.473 53C138.473 57.2667 139.64 60.6667 141.973 63.2C144.373 65.6667 147.273 66.9 150.673 66.9C154.073 66.9 156.94 65.6667 159.273 63.2C161.673 60.7333 162.873 57.3667 162.873 53.1ZM241.945 52.2C241.945 53.8 241.845 55.4667 241.645 57.2H202.945C203.211 60.6667 204.311 63.3333 206.245 65.2C208.245 67 210.678 67.9 213.545 67.9C217.811 67.9 220.778 66.1 222.445 62.5H240.645C239.711 66.1667 238.011 69.4667 235.545 72.4C233.145 75.3333 230.111 77.6333 226.445 79.3C222.778 80.9667 218.678 81.8 214.145 81.8C208.678 81.8 203.811 80.6333 199.545 78.3C195.278 75.9667 191.945 72.6333 189.545 68.3C187.145 63.9667 185.945 58.9 185.945 53.1C185.945 47.3 187.111 42.2333 189.445 37.9C191.845 33.5667 195.178 30.2333 199.445 27.9C203.711 25.5667 208.611 24.4 214.145 24.4C219.545 24.4 224.345 25.5333 228.545 27.8C232.745 30.0667 236.011 33.3 238.345 37.5C240.745 41.7 241.945 46.6 241.945 52.2ZM224.445 47.7C224.445 44.7667 223.445 42.4333 221.445 40.7C219.445 38.9667 216.945 38.1 213.945 38.1C211.078 38.1 208.645 38.9333 206.645 40.6C204.711 42.2667 203.511 44.6333 203.045 47.7H224.445ZM273.366 81.7C268.232 81.7 263.632 80.8667 259.566 79.2C255.499 77.5333 252.232 75.0667 249.766 71.8C247.366 68.5333 246.099 64.6 245.966 60H264.166C264.432 62.6 265.332 64.6 266.866 66C268.399 67.3333 270.399 68 272.866 68C275.399 68 277.399 67.4333 278.866 66.3C280.332 65.1 281.066 63.4667 281.066 61.4C281.066 59.6667 280.466 58.2333 279.266 57.1C278.132 55.9667 276.699 55.0333 274.966 54.3C273.299 53.5667 270.899 52.7333 267.766 51.8C263.232 50.4 259.532 49 256.666 47.6C253.799 46.2 251.332 44.1333 249.266 41.4C247.199 38.6667 246.166 35.1 246.166 30.7C246.166 24.1667 248.532 19.0667 253.266 15.4C257.999 11.6667 264.166 9.8 271.766 9.8C279.499 9.8 285.732 11.6667 290.466 15.4C295.199 19.0667 297.732 24.2 298.066 30.8H279.566C279.432 28.5333 278.599 26.7667 277.066 25.5C275.532 24.1667 273.566 23.5 271.166 23.5C269.099 23.5 267.432 24.0667 266.166 25.2C264.899 26.2667 264.266 27.8333 264.266 29.9C264.266 32.1667 265.332 33.9333 267.466 35.2C269.599 36.4667 272.932 37.8333 277.466 39.3C281.999 40.8333 285.666 42.3 288.466 43.7C291.332 45.1 293.799 47.1333 295.866 49.8C297.932 52.4667 298.966 55.9 298.966 60.1C298.966 64.1 297.932 67.7333 295.866 71C293.866 74.2667 290.932 76.8667 287.066 78.8C283.199 80.7333 278.632 81.7 273.366 81.7ZM315.089 19.4C312.089 19.4 309.622 18.5333 307.689 16.8C305.822 15 304.889 12.8 304.889 10.2C304.889 7.53333 305.822 5.33333 307.689 3.6C309.622 1.79999 312.089 0.899994 315.089 0.899994C318.022 0.899994 320.422 1.79999 322.289 3.6C324.222 5.33333 325.189 7.53333 325.189 10.2C325.189 12.8 324.222 15 322.289 16.8C320.422 18.5333 318.022 19.4 315.089 19.4ZM323.589 25.2V81H306.489V25.2H323.589ZM355.681 81.8C350.815 81.8 346.481 80.9667 342.681 79.3C338.881 77.6333 335.881 75.3667 333.681 72.5C331.481 69.5667 330.248 66.3 329.981 62.7H346.881C347.081 64.6333 347.981 66.2 349.581 67.4C351.181 68.6 353.148 69.2 355.481 69.2C357.615 69.2 359.248 68.8 360.381 68C361.581 67.1333 362.181 66.0333 362.181 64.7C362.181 63.1 361.348 61.9333 359.681 61.2C358.015 60.4 355.315 59.5333 351.581 58.6C347.581 57.6667 344.248 56.7 341.581 55.7C338.915 54.6333 336.615 53 334.681 50.8C332.748 48.5333 331.781 45.5 331.781 41.7C331.781 38.5 332.648 35.6 334.381 33C336.181 30.3333 338.781 28.2333 342.181 26.7C345.648 25.1667 349.748 24.4 354.481 24.4C361.481 24.4 366.981 26.1333 370.981 29.6C375.048 33.0667 377.381 37.6667 377.981 43.4H362.181C361.915 41.4667 361.048 39.9333 359.581 38.8C358.181 37.6667 356.315 37.1 353.981 37.1C351.981 37.1 350.448 37.5 349.381 38.3C348.315 39.0333 347.781 40.0667 347.781 41.4C347.781 43 348.615 44.2 350.281 45C352.015 45.8 354.681 46.6 358.281 47.4C362.415 48.4667 365.781 49.5333 368.381 50.6C370.981 51.6 373.248 53.2667 375.181 55.6C377.181 57.8667 378.215 60.9333 378.281 64.8C378.281 68.0667 377.348 71 375.481 73.6C373.681 76.1333 371.048 78.1333 367.581 79.6C364.181 81.0667 360.215 81.8 355.681 81.8ZM416.843 66.5V81H408.143C401.943 81 397.11 79.5 393.643 76.5C390.176 73.4333 388.443 68.4667 388.443 61.6V39.4H381.643V25.2H388.443V11.6H405.543V25.2H416.743V39.4H405.543V61.8C405.543 63.4667 405.943 64.6667 406.743 65.4C407.543 66.1333 408.876 66.5 410.743 66.5H416.843ZM475.968 52.2C475.968 53.8 475.868 55.4667 475.668 57.2H436.968C437.235 60.6667 438.335 63.3333 440.268 65.2C442.268 67 444.701 67.9 447.568 67.9C451.835 67.9 454.801 66.1 456.468 62.5H474.668C473.735 66.1667 472.035 69.4667 469.568 72.4C467.168 75.3333 464.135 77.6333 460.468 79.3C456.801 80.9667 452.701 81.8 448.168 81.8C442.701 81.8 437.835 80.6333 433.568 78.3C429.301 75.9667 425.968 72.6333 423.568 68.3C421.168 63.9667 419.968 58.9 419.968 53.1C419.968 47.3 421.135 42.2333 423.468 37.9C425.868 33.5667 429.201 30.2333 433.468 27.9C437.735 25.5667 442.635 24.4 448.168 24.4C453.568 24.4 458.368 25.5333 462.568 27.8C466.768 30.0667 470.035 33.3 472.368 37.5C474.768 41.7 475.968 46.6 475.968 52.2ZM458.468 47.7C458.468 44.7667 457.468 42.4333 455.468 40.7C453.468 38.9667 450.968 38.1 447.968 38.1C445.101 38.1 442.668 38.9333 440.668 40.6C438.735 42.2667 437.535 44.6333 437.068 47.7H458.468ZM499.089 34.5C501.089 31.4333 503.589 29.0333 506.589 27.3C509.589 25.5 512.922 24.6 516.589 24.6V42.7H511.889C507.622 42.7 504.422 43.6333 502.289 45.5C500.156 47.3 499.089 50.5 499.089 55.1V81H481.989V25.2H499.089V34.5ZM544.463 81.8C539.596 81.8 535.263 80.9667 531.463 79.3C527.663 77.6333 524.663 75.3667 522.463 72.5C520.263 69.5667 519.029 66.3 518.763 62.7H535.663C535.863 64.6333 536.763 66.2 538.363 67.4C539.963 68.6 541.929 69.2 544.263 69.2C546.396 69.2 548.029 68.8 549.163 68C550.363 67.1333 550.963 66.0333 550.963 64.7C550.963 63.1 550.129 61.9333 548.463 61.2C546.796 60.4 544.096 59.5333 540.363 58.6C536.363 57.6667 533.029 56.7 530.363 55.7C527.696 54.6333 525.396 53 523.463 50.8C521.529 48.5333 520.563 45.5 520.563 41.7C520.563 38.5 521.429 35.6 523.163 33C524.963 30.3333 527.563 28.2333 530.963 26.7C534.429 25.1667 538.529 24.4 543.263 24.4C550.263 24.4 555.763 26.1333 559.763 29.6C563.829 33.0667 566.163 37.6667 566.763 43.4H550.963C550.696 41.4667 549.829 39.9333 548.363 38.8C546.963 37.6667 545.096 37.1 542.763 37.1C540.763 37.1 539.229 37.5 538.163 38.3C537.096 39.0333 536.563 40.0667 536.563 41.4C536.563 43 537.396 44.2 539.063 45C540.796 45.8 543.463 46.6 547.063 47.4C551.196 48.4667 554.563 49.5333 557.163 50.6C559.763 51.6 562.029 53.2667 563.963 55.6C565.963 57.8667 566.996 60.9333 567.063 64.8C567.063 68.0667 566.129 71 564.263 73.6C562.463 76.1333 559.829 78.1333 556.363 79.6C552.963 81.0667 548.996 81.8 544.463 81.8Z" fill="currentColor">
  </path>
</svg>